<svg xmlns="http://www.w3.org/2000/svg" width="13.5" height="21.215" viewBox="0 0 13.5 21.215"><defs><style>.a{fill:#2464fc;}</style></defs><path class="a" d="M19.709,10.9A4.33,4.33,0,0,0,16.75,3.957V2.482A.482.482,0,0,0,16.268,2H15.3a.482.482,0,0,0-.482.482V3.929H13.375V2.482A.482.482,0,0,0,12.893,2h-.964a.482.482,0,0,0-.482.482V3.929h-.964A.482.482,0,0,0,10,4.411V20.8a.482.482,0,0,0,.482.482h.964v1.446a.482.482,0,0,0,.482.482h.964a.482.482,0,0,0,.482-.482V21.286h1.446v1.446a.482.482,0,0,0,.482.482h.964a.482.482,0,0,0,.482-.482V21.286h1.292A5.406,5.406,0,0,0,23.475,16.5,5.309,5.309,0,0,0,19.709,10.9ZM11.929,5.857h4.339a2.411,2.411,0,1,1,0,4.822H11.929Zm6.268,13.5H11.929v-6.75H18.2a3.375,3.375,0,0,1,0,6.75Z" transform="translate(-10 -2)"/></svg>