<svg xmlns="http://www.w3.org/2000/svg" width="45.224" height="45.191" viewBox="0 0 45.224 45.191"><defs><style>.a{fill:#b5bad0;}.b{fill:none;stroke:#b5bad0;stroke-miterlimit:10;stroke-width:2.5px;}</style></defs><g transform="translate(0.267 0.25)"><path class="a" d="M23.475,22.88a4.956,4.956,0,0,1-1.721,3.881,8.75,8.75,0,0,1-4.97,1.884v3.522H14.626V28.74a16.743,16.743,0,0,1-6.609-1.23V24.081a16.644,16.644,0,0,0,3.264,1.145,14.781,14.781,0,0,0,3.345.479V19.631l-1.358-.5a9.613,9.613,0,0,1-3.891-2.443,5.191,5.191,0,0,1-1.23-3.514A4.574,4.574,0,0,1,9.893,9.483a8.645,8.645,0,0,1,4.735-1.746V5h2.158V7.68a17.9,17.9,0,0,1,6.252,1.331l-1.188,2.975a17.464,17.464,0,0,0-5.067-1.2V16.7l1.234.472a11.255,11.255,0,0,1,4.269,2.5,4.628,4.628,0,0,1,1.188,3.212ZM11.962,13.136a2.171,2.171,0,0,0,.582,1.541A5.866,5.866,0,0,0,14.632,15.9V10.851a3.8,3.8,0,0,0-1.983.8A1.911,1.911,0,0,0,11.962,13.136Zm7.68,9.986a2.02,2.02,0,0,0-.658-1.552,6.726,6.726,0,0,0-2.2-1.178v5.177Q19.643,25.137,19.642,23.122Z" transform="translate(6.599 3.762)"/><path class="a" d="M24.971,24.454,17.5,25.521l1.067-7.471Z" transform="translate(15.518 16.035)"/><path class="a" d="M9.054,9.571,10.121,2.1,2.65,3.167Z" transform="translate(1.552 1.035)"/><path class="b" d="M24.971,24.454,17.5,25.521l1.067-7.471Z" transform="translate(15.518 16.035)"/><path class="b" d="M9.054,9.571,10.121,2.1,2.65,3.167Z" transform="translate(1.552 1.035)"/><path class="b" d="M27.093,37.439A21.345,21.345,0,0,0,12,1" transform="translate(10.345)"/><path class="b" d="M7.252,4.222A21.345,21.345,0,0,0,22.345,40.661" transform="translate(0 3.03)"/></g></svg>