<svg xmlns="http://www.w3.org/2000/svg" width="18.632" height="21.209" viewBox="0 0 18.632 21.209"><defs><style>.a{fill:#2464fc;}</style></defs><path class="a" d="M18.477,19.721a6.657,6.657,0,0,1-4.284,1.357,6.67,6.67,0,0,1-6.786-5.655h6.609V14.009H7.188c-.041-.443-.064-.914-.064-1.414s.022-.97.064-1.414h6.828V9.768H7.407a6.67,6.67,0,0,1,6.786-5.655,6.635,6.635,0,0,1,4.282,1.365l.825.665,1.331-1.651-.826-.666a8.7,8.7,0,0,0-5.613-1.834c-5.5,0-8.118,3.75-8.915,7.775H2v1.414H5.072C5.026,11.657,5,12.129,5,12.6s.022.939.068,1.414H2v1.414H5.278c.8,4.025,3.419,7.775,8.915,7.775A8.715,8.715,0,0,0,19.8,21.374l.827-.664L19.3,19.056Z" transform="translate(-2 -1.988)"/></svg>