<svg xmlns="http://www.w3.org/2000/svg" width="29" height="21.75" viewBox="0 0 29 21.75"><defs><style>.a{fill:#c60b1e;}.b{fill:#ffc300;}.c{fill:#91443a;}</style></defs><g transform="translate(0 -6)"><path class="a" d="M29,12.458H0V7.292A1.252,1.252,0,0,1,1.208,6H27.792A1.252,1.252,0,0,1,29,7.292Z"/><rect class="b" width="29" height="10.25" transform="translate(0 11.633)"/><path class="a" d="M29,37.167a1.252,1.252,0,0,1-1.208,1.292H1.208A1.252,1.252,0,0,1,0,37.167V32H29Z" transform="translate(0 -10.708)"/><path class="c" d="M11.167,19.292V18H6v1.292H7.292v1.292H6v3.444L8.583,25.75l2.583-1.723V20.583H9.875V19.292Z" transform="translate(-2.125 -5)"/></g></svg>