<svg xmlns="http://www.w3.org/2000/svg" width="29" height="21.399" viewBox="0 0 29 21.399"><defs><style>.a{fill:#b41f30;}.b{fill:#e6e6e6;}.c{fill:#00256a;}.d{fill:#fff;}</style></defs><g transform="translate(0 -6)"><path class="a" d="M28.5,7.189A1.188,1.188,0,0,0,27.313,6H11.875V17.888H0V26.21A1.188,1.188,0,0,0,1.188,27.4H27.313A1.188,1.188,0,0,0,28.5,26.21Z" transform="translate(0 0)"/><rect class="b" width="18" height="2" transform="translate(11 8.875)"/><rect class="b" width="18" height="2" transform="translate(11 13.318)"/><path class="b" d="M0,26v2.542H28.5V26H0Z" transform="translate(0 -8.214)"/><rect class="b" width="29" height="2" transform="translate(0 22.399)"/><path class="c" d="M12.708,18.708H0V7.271A1.27,1.27,0,0,1,1.271,6H12.708Z"/><path class="d" d="M9.221,13.922l-.4.869H7.863l.7.724L8.3,16.563l.917-.52.917.52L9.88,15.516l.7-.724H9.622Z" transform="translate(-3.22 -3.255)"/><path class="d" d="M4.328,9.029l-.4.869H2.971l.7.724L3.411,11.67l.917-.52.918.52-.259-1.047.7-.724H4.729Z" transform="translate(-1.083 -1.104)"/><path class="d" d="M14.114,9.029l.4.869h.956l-.7.724.258,1.047-.917-.52-.918.52.259-1.047-.7-.724h.957Z" transform="translate(-5.224 -1.104)"/><path class="d" d="M4.328,21.456l-.4-.869H2.971l.7-.724-.258-1.047.917.52.918-.52-.259,1.047.7.724H4.729Z" transform="translate(-1.083 -5.266)"/><path class="d" d="M14.114,21.456l.4-.869h.956l-.7-.724.258-1.047-.917.52-.918-.52.259,1.047-.7.724h.957Z" transform="translate(-5.224 -5.266)"/></g></svg>